<?xml version="1.0" standalone="no"?>
<!DOCTYPE svg PUBLIC "-//W3C//DTD SVG 20010904//EN"
 "http://www.w3.org/TR/2001/REC-SVG-20010904/DTD/svg10.dtd">
<svg version="1.0" xmlns="http://www.w3.org/2000/svg"
 width="512.000000pt" height="512.000000pt" viewBox="0 0 512.000000 512.000000"
 preserveAspectRatio="xMidYMid meet">
<metadata>
Created by potrace 1.11, written by Peter Selinger 2001-2013
</metadata>
<g transform="translate(0.000000,512.000000) scale(0.100000,-0.100000)"
fill="#000000" stroke="none">
<path d="M1480 5085 c-89 -25 -160 -66 -226 -130 -114 -112 -155 -217 -150
-380 3 -110 23 -178 76 -257 16 -23 174 -188 352 -366 l322 -323 -182 -181
-181 -182 -328 328 c-248 248 -343 336 -388 361 -278 156 -625 22 -731 -282
-22 -64 -27 -213 -8 -281 34 -130 47 -146 412 -514 l344 -346 -313 -314 c-349
-348 -378 -380 -413 -460 -86 -194 -46 -416 102 -563 153 -154 376 -193 573
-103 31 14 67 34 80 44 13 11 174 169 359 352 l335 332 158 -158 158 -158
-344 -344 c-302 -303 -348 -353 -375 -410 -43 -88 -59 -159 -57 -244 10 -326
307 -555 624 -481 130 31 158 53 524 418 l339 339 347 -344 c369 -366 384
-378 516 -412 174 -46 365 11 491 147 97 104 140 228 131 377 -5 94 -29 169
-77 240 -16 25 -175 190 -352 368 l-322 323 182 182 181 181 318 -318 c188
-188 342 -335 377 -358 196 -128 459 -98 626 71 159 160 193 379 93 589 -22
47 -87 118 -371 403 l-344 347 336 336 c184 185 347 356 362 381 48 83 66 145
70 240 6 155 -42 279 -147 384 -127 126 -314 175 -484 129 -129 -36 -149 -51
-515 -415 l-346 -343 -157 158 -157 157 338 340 c352 354 384 392 416 505 76
262 -56 521 -317 622 -69 27 -211 33 -292 12 -128 -33 -156 -56 -518 -418
l-339 -338 -337 335 c-185 184 -354 346 -376 359 -111 68 -279 95 -395 63z
m202 -180 c76 -17 120 -54 436 -369 l322 -321 -227 -227 -228 -228 -322 322
c-251 251 -327 333 -347 375 -90 182 21 408 221 451 41 9 92 8 145 -3z m1986
-6 c82 -27 148 -84 190 -163 22 -44 26 -63 26 -141 1 -141 3 -139 -379 -522
l-331 -332 -228 228 -227 227 323 324 c178 177 339 333 358 346 70 46 183 60
268 33z m-638 -1293 c0 -4 -99 -108 -221 -229 l-220 -221 -225 225 c-123 123
-224 227 -224 230 0 4 100 106 222 228 l221 221 223 -222 c123 -123 224 -227
224 -232z m1715 241 c171 -87 232 -301 130 -458 -13 -20 -168 -181 -346 -358
l-323 -322 -227 227 -227 227 316 316 c330 330 361 358 427 384 63 25 187 17
250 -16z m-4103 -32 c49 -16 80 -45 386 -349 l332 -331 -227 -227 -228 -228
-318 317 c-365 366 -378 383 -379 518 -1 65 4 84 31 140 76 153 232 215 403
160z m1647 -620 c162 -162 297 -295 300 -295 3 0 134 129 291 285 156 157 287
285 290 285 9 0 313 -310 309 -315 -2 -2 -132 -133 -288 -290 l-284 -286 34
-35 c19 -20 154 -156 301 -302 l266 -266 -176 -178 c-98 -98 -181 -178 -187
-178 -5 0 -142 133 -304 295 -162 162 -297 295 -300 295 -3 0 -134 -129 -290
-285 -157 -157 -287 -285 -290 -285 -3 0 -76 70 -161 155 l-154 155 99 101
c55 55 184 184 288 287 103 102 187 189 187 193 0 3 -133 138 -295 300 -162
162 -295 298 -295 302 0 12 343 357 355 357 6 0 142 -133 304 -295z m1559
-398 l223 -224 -225 -225 -225 -225 -227 228 -227 228 221 220 c122 122 225
221 229 221 4 0 108 -101 231 -223z m-2109 -41 l225 -225 -221 -220 c-122
-122 -225 -221 -230 -221 -4 0 -108 101 -230 223 l-222 223 221 222 c122 122
224 222 227 222 3 0 107 -101 230 -224z m3131 -985 c109 -161 45 -387 -130
-465 -98 -44 -205 -42 -290 7 -19 11 -180 164 -357 341 l-323 321 227 227 228
228 308 -308 c169 -169 321 -327 337 -351z m-3500 175 c0 -4 -147 -155 -327
-335 -358 -356 -376 -370 -490 -379 -185 -14 -330 111 -346 298 -5 56 17 144
47 190 13 19 169 180 347 358 l323 323 223 -223 c123 -123 223 -227 223 -232z
m1401 -222 l225 -225 -224 -225 -225 -225 -223 223 c-123 123 -224 227 -224
232 0 8 430 444 440 445 3 1 106 -101 231 -225z m-374 -822 c-44 -54 -639
-639 -667 -657 -171 -108 -399 -30 -473 161 -24 63 -18 185 13 249 18 37 106
131 355 382 l330 331 227 -226 c184 -183 225 -229 215 -240z m1431 -283 c90
-281 -193 -518 -458 -384 -19 9 -180 162 -357 339 l-323 321 228 228 227 227
331 -332 c329 -331 331 -333 352 -399z"/>
</g>
</svg>
